<svg width="132" height="91" viewBox="0 0 132 91" fill="none" xmlns="http://www.w3.org/2000/svg">
<g opacity="0.09" clip-path="url(#clip0_163_282)">
<path fill-rule="evenodd" clip-rule="evenodd" d="M130.58 77.0483C131.199 75.9779 131.635 74.8796 131.833 73.718C131.524 74.2453 131.044 74.614 130.41 74.8162L130.1 73.8726C129.466 75.0343 128.827 75.6686 128.192 75.7757V74.6616C128.177 74.8797 127.915 75.2048 127.403 75.621C127.078 74.4435 127.03 73.4524 127.233 72.6039L127.558 73.2383C127.233 72.4929 127.233 71.6564 127.558 70.6969C127.233 68.0485 126.86 66.1614 126.443 64.9839C126.209 64.6429 125.995 64.3019 125.809 63.961C125.654 63.6953 125.515 63.4654 125.42 63.2473C124.861 62.2562 124.524 61.3602 124.381 60.5553L123.825 59.8258C123.98 60.0875 124.055 60.5395 124.055 61.1738H123.901L124.381 63.7112L124.071 63.402L124.535 67.212L123.746 66.423L124.381 69.5829L124.071 69.4282C124.071 70.5899 124.182 72.2313 124.381 74.3524L123.437 73.2383C123.639 73.5475 123.746 74.0907 123.746 74.8162L123.437 74.507C123.219 76.5052 122.85 77.9443 122.322 78.7809L122.013 78.4716C121.902 80.4698 121.16 81.6315 119.78 81.9566C119.673 81.7385 119.673 81.5363 119.78 81.3222L118.046 82.1112C118.046 82.3292 117.876 82.5433 117.567 82.7455C117.455 82.3292 117.412 81.909 117.412 81.4768C117.194 81.909 116.511 82.6385 115.333 83.705L114.869 83.2253C114.544 84.1728 114.017 84.6525 113.287 84.6525L113.755 83.8596C112.7 85.2393 111.585 85.9212 110.423 85.9212V85.4415L109.634 85.9212L109.479 85.1323L108.841 85.7666L108.515 85.2869C108.099 86.1393 107.044 86.6626 105.342 86.8648L107.246 85.9212C108.206 85.3939 108.67 84.8666 108.67 84.3433C109.634 84.0142 110.84 83.3363 112.327 82.2817C113.073 81.9566 113.6 81.6473 113.91 81.3222C115.072 80.3786 115.813 79.8949 116.123 79.8949C116.559 79.5698 116.761 79.0465 116.761 78.317L117.396 78.7809C118.138 78.1465 118.511 77.2029 118.511 75.9303C119.038 75.6052 119.363 75.0343 119.47 74.1819V71.9656L120.26 72.4493C120.569 71.704 120.68 70.7445 120.569 69.5829L120.894 70.0626C121.112 69.9555 121.315 69.6423 121.533 69.1031L121.208 65.4636L121.378 65.309C121.267 63.513 120.835 60.7536 120.105 57.0545L119.934 56.7453L120.569 57.3797C119.736 55.6748 119.363 54.4062 119.47 53.5696L117.087 49.2799C117.503 49.1688 118.463 49.7596 119.934 51.0283C121.315 52.1899 122.211 53.0899 122.647 53.7242L123.111 53.2445C123.639 54.7313 124.274 55.7819 125.019 56.4202V54.9929C125.543 56.1546 126.023 56.9435 126.443 57.3797C126.443 56.4202 126.396 55.6748 126.289 55.1475C126.614 55.9999 126.971 57.2686 127.403 58.9576L127.558 56.7453C127.76 58.4303 128.149 59.7029 128.672 60.5553L128.347 59.4373C128.875 60.1668 129.247 61.2333 129.466 62.613V61.3443C129.791 62.506 130.1 64.1909 130.41 66.423V64.9839C130.628 66.2526 131.108 68.1556 131.833 70.6969C132.27 73.0202 131.833 75.1413 130.58 77.0483ZM104.394 88.6172C105.775 88.5062 107.246 88.2445 108.829 87.8243C107.464 88.2445 106.132 88.5062 104.862 88.6172H104.394ZM119.934 55.6273L120.105 54.8383C119.998 54.7313 119.843 54.5291 119.625 54.204L119.934 55.6273ZM94.5578 88.1375C94.8354 88.3357 95.1289 88.4308 95.4264 88.4626C95.0377 88.4467 94.6966 88.3357 94.4031 88.1375H94.5578Z" fill="#1E1C1F"/>
<path fill-rule="evenodd" clip-rule="evenodd" d="M119.934 55.6274L119.625 54.2041C119.827 54.5292 119.998 54.7314 120.089 54.8385L119.934 55.6274Z" fill="#656466"/>
<path fill-rule="evenodd" clip-rule="evenodd" d="M114.235 78.317C114.235 78.21 114.278 78.0554 114.389 77.8373C114.497 77.9444 114.544 78.099 114.544 78.317C114.651 78.4082 114.651 78.5787 114.544 78.7809H114.715C114.806 78.5787 114.869 78.4082 114.869 78.317C115.286 77.4646 115.599 76.7232 115.813 76.0849V75.1413L116.448 77.0483C116.975 75.7757 116.868 74.0273 116.123 71.811C116.234 71.922 116.666 72.4493 117.396 73.3929C117.61 72.6634 117.61 71.6564 117.396 70.3877C116.975 69.008 116.714 68.001 116.603 67.3667C117.039 68.3261 117.658 69.0556 118.51 69.5988C117.876 67.1526 117.61 65.4636 117.721 64.52L119.47 67.0574L118.681 62.7677L120.089 64.191C119.47 61.8716 119.252 60.1827 119.47 59.1122C119.673 59.5483 119.934 59.7466 120.26 59.7466L119.934 56.7453L120.105 57.0546C120.835 60.7536 121.267 63.513 121.378 65.309L121.208 65.4636L121.533 69.119C121.315 69.6424 121.112 69.9556 120.894 70.0626L120.569 69.5988C120.68 70.7445 120.569 71.704 120.26 72.4493L119.47 71.9657V74.1819C119.363 75.0343 119.038 75.6052 118.51 75.9303C118.51 77.203 118.138 78.1466 117.396 78.7809L116.761 78.317C116.761 79.0465 116.559 79.5699 116.123 79.895C115.813 79.895 115.072 80.3787 113.909 81.3222C113.6 81.6473 113.073 81.9566 112.327 82.2817C110.84 83.3363 109.634 84.0143 108.67 84.3433C108.67 84.8667 108.206 85.394 107.246 85.9213L105.342 86.8648H105.029C104.271 87.067 103.093 87.1741 101.546 87.1899C101.745 86.9758 101.963 86.8212 102.181 86.7102H103.434L103.28 86.2464C104.24 86.0283 104.922 85.9213 105.342 85.9213L105.029 85.1323C105.667 84.6962 106.191 84.4979 106.611 84.4979C106.83 84.0618 107.464 83.4909 108.515 82.7456C108.936 82.4363 109.309 82.1746 109.634 81.9566C109.741 81.7385 109.788 81.5839 109.788 81.4769L110.114 81.013H110.423C111.058 80.902 111.645 80.4223 112.172 79.5857C112.172 79.4787 112.22 79.3716 112.327 79.2606V79.895C112.545 79.895 112.763 79.7879 112.962 79.5699C113.073 79.5699 113.287 79.4152 113.6 79.106C113.707 78.8919 113.909 78.6263 114.235 78.317Z" fill="#322F33"/>
<path fill-rule="evenodd" clip-rule="evenodd" d="M117.876 85.2869L111.058 87.3445C110.641 87.4556 110.205 87.5626 109.789 87.6696L109.309 87.8243H108.841C107.246 88.2445 105.775 88.5062 104.394 88.6172C104.18 88.6172 104.069 88.6767 104.069 88.7718L103.125 88.9423C102.907 88.9423 102.709 88.9859 102.49 89.0969H98.6788C98.1513 89.0969 97.6872 89.0493 97.2549 88.9423C96.6163 88.8313 96.0452 88.6767 95.5018 88.4626H95.4383C95.1289 88.4309 94.8354 88.3357 94.5578 88.1375C95.1924 88.3516 95.9381 88.4626 96.7869 88.4626C100.059 88.6767 102.816 88.1375 105.029 86.8807H105.354C107.044 86.6626 108.099 86.1393 108.531 85.2869L108.841 85.7666L109.479 85.1323L109.634 85.9212L110.423 85.4574V85.9212C111.601 85.9212 112.7 85.2393 113.755 83.8596L113.275 84.6525C114.017 84.6525 114.544 84.1728 114.869 83.2253L115.334 83.705C116.512 82.6385 117.194 81.909 117.412 81.4769C117.412 81.909 117.456 82.3293 117.567 82.7455C117.892 82.5433 118.046 82.3293 118.046 82.1112L119.78 81.3222C119.673 81.5363 119.673 81.7385 119.78 81.9566C121.16 81.6315 121.902 80.4698 122.013 78.4716L122.322 78.7809C122.85 77.9443 123.219 76.5052 123.437 74.507L123.746 74.8162C123.746 74.0907 123.655 73.5475 123.437 73.2383L124.381 74.3524C124.182 72.2313 124.071 70.5899 124.071 69.4283L124.381 69.5829L123.746 66.423L124.535 67.212L124.071 63.402L124.381 63.7112L123.901 61.1897H124.071C124.071 60.5395 123.996 60.0875 123.841 59.8417L124.381 60.5554C124.524 61.3602 124.861 62.2562 125.42 63.2474C125.142 62.8905 124.861 62.6289 124.535 62.4584C125.606 64.1473 125.979 66.2526 125.654 68.7939C125.654 70.3877 125.345 72.6476 124.706 75.6052C124.599 76.9849 123.266 79.1536 120.74 82.1112C120.307 82.6385 119.934 83.0112 119.625 83.2253C119.098 83.7526 118.308 84.3869 117.241 85.1323H117.412C117.412 85.2393 117.567 85.2869 117.876 85.2869ZM119.3 84.6525C119.518 84.5415 119.736 84.3869 119.934 84.1728C120.894 83.6455 121.688 82.9636 122.322 82.1112C123.591 80.7474 124.492 78.9514 125.019 76.7232C125.654 74.8162 126.086 73.4524 126.289 72.6039C126.705 70.915 126.816 69.4283 126.614 68.1556C126.396 66.2526 126.241 65.198 126.134 64.9997C126.039 64.6271 125.932 64.2702 125.824 63.961C126.011 64.302 126.209 64.6429 126.443 64.9997C126.876 66.1614 127.233 68.0644 127.558 70.6969C127.233 71.6564 127.233 72.4929 127.558 73.2383L127.233 72.6039C127.03 73.4524 127.078 74.4594 127.403 75.6211C127.931 75.2048 128.192 74.8797 128.192 74.6616V75.7757C128.827 75.6686 129.466 75.0343 130.1 73.8726L130.41 74.8321C131.044 74.614 131.524 74.2453 131.849 73.718C131.635 74.8797 131.215 75.9937 130.58 77.0483C128.998 79.6967 126.023 81.9566 121.688 83.8596L119.3 84.6525ZM19.0425 28.1998C19.6771 28.402 20.05 28.5566 20.1412 28.6676C20.2483 27.506 20.3118 26.6694 20.3118 26.1263L21.1011 27.395L21.2557 26.4514C21.7991 26.713 22.2037 27.1174 22.4496 27.6447C22.3901 27.506 22.3743 27.3632 22.3743 27.2403C22.2632 25.9716 22.7907 25.4443 23.9529 25.6624C24.0599 25.6624 24.2146 25.706 24.4328 25.817L24.7422 26.1421L25.0674 26.4514C25.9202 27.1928 26.4477 27.8311 26.65 28.3544C26.4477 27.613 26.2295 26.9311 26.0154 26.2967C26.4477 26.5148 26.8205 26.713 27.1299 26.9311C26.9276 26.2967 26.65 25.7694 26.3406 25.3532C27.5027 26.824 28.6649 28.62 29.827 30.7411C31.5127 33.6988 33.7458 37.8815 36.4865 43.2694C38.6085 46.6473 43.3681 51.619 50.7733 58.1686V58.6484C49.8134 58.1211 48.9765 57.3797 48.2309 56.4202C48.2309 56.7453 48.1238 57.3321 47.9056 58.1686L45.2085 56.107L44.8991 56.7453C44.1574 56.218 43.3681 54.7907 42.5154 52.4556C42.5154 52.5626 42.3131 52.9789 41.8807 53.7242C41.0438 53.7242 40.2982 53.3516 39.6636 52.6102L39.5089 52.4556C39.0884 51.9283 38.7196 51.1988 38.3943 50.2393L37.7597 51.9877L37.4464 49.1411C37.1211 49.4503 36.4865 50.0847 35.5425 51.0441C35.5425 48.0706 35.2173 45.902 34.5827 44.5381V44.6967C34.2733 45.113 34.0075 46.0566 33.7934 47.5433H33.6347C33.5276 47.4363 33.48 47.3293 33.48 47.2182C32.7383 45.7474 32.2584 44.0425 32.0402 42.1395H31.8855C31.358 42.1395 30.9416 42.3576 30.6163 42.7739C30.0888 43.21 29.716 43.8443 29.5137 44.6809C29.1884 45.6403 28.9743 46.5363 28.8791 47.3887L28.7085 48.3323V45.7949C28.6173 44.3082 28.5102 43.099 28.3991 42.1554L28.2444 41.3505C28.058 40.4981 27.8557 39.8638 27.6098 39.4594V39.614C26.4477 41.521 25.8131 43.4716 25.702 45.4857L25.5473 45.9654C25.3331 42.3734 25.2855 39.1977 25.3768 36.4383C24.9603 37.711 24.2146 39.725 23.1636 42.4646C22.9613 37.818 22.6836 34.7534 22.3743 33.2666C21.9538 33.8058 21.2121 34.5353 20.1412 35.4947C19.9389 32.212 19.9865 29.9958 20.3118 28.8381C19.6771 29.1473 18.9315 29.6271 18.0827 30.2614V29.7817C17.8804 28.7271 17.7693 28.0927 17.7693 27.8747C17.8804 27.8747 17.9716 27.9223 18.0827 28.0293C18.4079 28.5566 18.7173 28.9927 19.0425 29.302V28.1998ZM22.049 25.6624C21.8467 24.917 21.7357 24.5008 21.7357 24.3897H21.8943L22.049 25.6624ZM19.0425 24.3897C19.0425 24.2827 19.0862 24.1757 19.1972 24.0646L20.1412 23.91C19.9389 24.2351 19.6137 24.5919 19.1972 25.0281C19.0862 24.81 19.0425 24.5919 19.0425 24.3897ZM25.0674 22.8118L25.702 22.4867C26.7571 22.5938 27.9192 22.5501 29.1884 22.3321C29.2995 22.4391 29.5137 22.5938 29.827 22.8118C30.4616 23.3391 30.8781 23.8664 31.0962 24.3897C31.2033 24.81 31.4215 25.4443 31.7309 26.2967C32.893 28.509 34.3169 30.7411 36.0066 32.9574C37.2758 34.6423 39.136 37.2471 41.5674 40.7321C43.6775 43.7967 45.6448 46.2271 47.4416 48.0231L54.5849 55.4727C55.4218 56.6343 56.1636 57.4867 56.7982 58.014L64.5762 64.52L65.0402 66.2684C65.5836 67.105 66.9481 67.9574 69.1771 68.8098C68.4354 68.8098 67.5827 68.6393 66.6387 68.3261C60.9192 63.6835 56.2111 60.0281 52.5066 57.3797C47.0211 53.4745 42.3131 48.3957 38.3943 42.1554C34.9079 35.8199 32.4765 31.6411 31.0962 29.6271C29.0813 26.6694 27.1894 24.5008 25.3768 23.1211C25.2855 23.014 25.1785 22.903 25.0674 22.8118ZM14.1163 27.395C14.2234 27.3038 14.3305 27.2403 14.4416 27.2403C14.5487 27.4584 14.6557 27.6606 14.7509 27.8747C14.4416 28.0927 14.1163 28.2949 13.803 28.509V28.3544C13.914 27.9223 14.0211 27.613 14.1163 27.395ZM13.803 25.817L14.2869 25.3373L14.9215 25.0281V25.6624L13.803 26.7765V25.817ZM15.8655 32.3191L14.9215 33.2666C14.4852 32.5371 14.3781 31.5777 14.5962 30.416C14.7033 29.7817 14.858 29.2068 15.0762 28.6676C15.1833 29.0998 15.2904 29.6707 15.3856 30.416C15.4926 31.1574 15.6473 31.7957 15.8655 32.3191ZM17.6146 30.7411C17.0752 31.1574 16.6112 31.5777 16.1749 31.994C15.9726 31.5777 15.8655 31.205 15.8655 30.8957C15.7584 30.4636 15.7108 30.0909 15.7108 29.7817C15.6196 29.5795 15.5561 29.3931 15.5561 29.2227V28.8381C15.6473 28.402 15.8179 27.9857 16.0202 27.5654C16.3454 27.9857 16.7182 28.402 17.1347 28.8381V29.1473C17.2458 29.7817 17.4005 30.309 17.6146 30.7411Z" fill="#171617"/>
<path fill-rule="evenodd" clip-rule="evenodd" d="M119.3 84.6525C118.99 84.7596 118.729 84.9142 118.51 85.1322C118.201 85.1322 117.983 85.1759 117.892 85.2869C117.566 85.2869 117.412 85.2393 117.412 85.1322H117.241C118.308 84.3869 119.097 83.7525 119.625 83.2252C119.934 83.0112 120.307 82.6385 120.74 82.1112C123.266 79.1535 124.599 76.9849 124.706 75.6052C125.344 72.6475 125.654 70.3718 125.654 68.7939C125.979 66.2525 125.606 64.1314 124.535 62.4425C124.861 62.6288 125.142 62.8905 125.42 63.2473C125.515 63.4654 125.654 63.6953 125.809 63.961C125.931 64.2702 126.039 64.6112 126.134 64.9839C126.241 65.1979 126.396 66.2525 126.614 68.1556C126.816 69.4282 126.705 70.915 126.288 72.6039C126.07 73.4405 125.654 74.8162 125.019 76.7232C124.492 78.9355 123.591 80.7315 122.322 82.1112C121.687 82.9636 120.894 83.6455 119.934 84.1728C119.736 84.3869 119.518 84.5415 119.3 84.6525Z" fill="#3A3728"/>
<path fill-rule="evenodd" clip-rule="evenodd" d="M114.544 78.317H114.869C114.869 78.4082 114.806 78.5786 114.715 78.7808H114.544C114.651 78.5786 114.651 78.4082 114.544 78.317ZM114.235 78.317C113.909 78.6262 113.707 78.8918 113.6 79.1059C113.073 79.2011 112.636 79.2606 112.327 79.2606C112.018 79.3716 111.803 79.4152 111.692 79.4152C111.803 79.4152 111.958 79.4786 112.172 79.5857C111.645 80.4222 111.058 80.9019 110.423 81.0129C106.83 80.5768 102.118 80.0059 96.3068 79.2606C95.347 79.0465 94.5101 78.7333 93.7684 78.317L99.004 77.9919C96.4615 77.9919 92.9156 77.4051 88.3583 76.2435C90.9919 76.0413 93.2409 76.1166 95.113 76.4893C91.3806 75.6369 87.803 74.1343 84.3919 71.9656C79.0175 71.7515 73.0839 69.6899 66.6386 65.7728C67.6897 65.6776 69.1175 65.7252 70.9143 65.9433C72.9292 66.4706 74.4166 66.7798 75.3606 66.8869C67.2097 63.5129 61.8671 60.0121 59.3405 56.4202L61.0738 56.8999L59.6499 55.6272C60.1774 55.5202 60.9191 55.6907 61.8829 56.107C62.934 56.4202 63.6797 56.5906 64.0961 56.5906C59.9751 54.1563 56.9528 52.2969 55.0489 51.0282L55.8382 50.8736C53.5139 50.0212 51.4554 48.5979 49.6586 46.5839C53.0499 47.8525 55.1124 48.5345 55.8382 48.6455C51.6101 46.8455 49.0201 44.8949 48.0761 42.7738C49.4564 43.5192 51.1897 44.1059 53.3117 44.5262C50.2457 43.6738 46.6522 41.8778 42.5153 39.1343C44.2049 40.1889 45.847 40.7756 47.4415 40.8866C47.021 40.4505 45.5336 39.2889 42.9952 37.3858C41.0874 36.022 39.7705 34.7533 39.0288 33.5917C40.9327 34.4282 42.4201 34.9515 43.4751 35.1696C42.1266 34.4441 39.0288 32.2278 34.1939 28.509C35.0625 29.1473 35.9311 29.4565 36.8116 29.4565C35.9589 28.509 35.0625 27.72 34.1185 27.0857C34.6421 26.9786 35.479 27.0857 36.6411 27.3949C37.0457 27.5337 37.4185 27.6447 37.7596 27.72C36.1294 27.1332 34.3327 26.1262 32.3654 24.7029C34.9078 24.917 36.534 24.9646 37.2757 24.8734C35.8042 24.2351 33.1547 23.3866 29.343 22.332L29.5136 22.1774C30.4615 22.3796 31.469 22.3796 32.5201 22.1774L30.9415 21.8523C31.0485 21.7413 31.2032 21.6343 31.4214 21.5431C32.4764 21.6343 33.4204 21.8047 34.2732 22.0069C37.2321 22.9664 39.4453 23.7553 40.9327 24.3897C43.5822 25.3372 45.49 26.6059 46.6522 28.1997C45.1648 27.5654 42.9952 27.1332 40.1434 26.931C41.1984 27.0381 42.4201 27.5059 43.7845 28.3544C44.5302 28.8817 45.6447 29.6706 47.1162 30.7411C46.5887 30.7411 45.6923 30.3684 44.4191 29.627C45.379 30.2614 46.3269 31.0979 47.2868 32.1644C48.0126 32.8939 49.0835 34.119 50.4479 35.8039C49.0835 34.4282 47.2868 33.5917 45.0537 33.2666C45.9065 33.6987 47.2868 34.6423 49.1748 36.1132C50.8803 37.4929 52.3082 38.3929 53.4663 38.825C51.6696 38.3929 49.4405 37.6634 46.8068 36.5969C49.7657 38.4999 53.7797 40.6686 58.8606 43.0989L55.2195 42.1553C57.746 43.424 59.5428 44.6967 60.6097 45.9654L58.5512 45.1605C60.1298 46.0129 61.399 46.8614 62.347 47.6979C60.8755 47.6979 59.277 47.3292 57.5913 46.5997C58.4401 47.016 60.0227 47.6979 62.347 48.6613C64.3619 49.4939 65.8493 50.3027 66.7933 51.0282C64.9965 51.0282 63.4615 50.826 62.1923 50.3939C65.2583 51.7736 67.3803 52.626 68.5424 52.9352C64.0961 52.1899 60.7644 51.5555 58.5512 51.0282C59.6023 51.4485 61.0302 52.1423 62.8269 53.0899C64.7308 54.2515 66.1587 54.9453 67.1185 55.1475C68.2806 55.5836 69.8156 55.8929 71.7195 56.107C74.3531 56.5272 75.8881 56.7889 76.3204 56.8999C74.5237 57.4232 72.2946 57.5818 69.657 57.3796C73.0363 58.2162 74.8331 58.6959 75.0512 58.8029C77.903 59.2232 79.5887 59.5919 80.1162 59.917C78.847 60.2262 77.5302 60.3848 76.1499 60.3848C79.3269 61.5465 81.3894 62.1808 82.3493 62.2879C79.6998 62.2879 77.1573 62.0262 74.726 61.4989C79.6998 64.3495 83.9755 65.9433 87.569 66.2525H85.1971C90.1709 67.6322 94.2919 68.9485 97.58 70.2172L95.347 69.9079C96.5091 70.4352 98.2147 71.4423 100.428 72.9131C98.9405 72.9131 96.6797 72.6039 93.6137 71.9656C94.7758 72.8021 96.7273 73.4404 99.4839 73.8726C102.55 74.2889 104.565 74.7686 105.513 75.2959L101.388 75.7598C103.605 76.5051 105.822 76.8778 108.051 76.8778L106.611 77.0324C108.531 77.7738 110.855 78.2099 113.6 78.3011C113.798 78.317 114.017 78.317 114.235 78.317ZM112.962 79.5698C112.747 79.7879 112.545 79.8949 112.327 79.8949V79.5698H112.962Z" fill="#373538"/>
<path fill-rule="evenodd" clip-rule="evenodd" d="M109.309 87.8243L109.789 87.6697V87.8243H109.309ZM102.645 86.7103L102.011 85.7667C102.118 86.0759 102.272 86.401 102.491 86.7103H102.165C101.963 86.8213 101.745 86.9759 101.531 87.19C103.093 87.1741 104.256 87.0671 105.029 86.8649C102.816 88.1375 100.059 88.6609 96.771 88.4626C95.9381 88.4626 95.1924 88.3516 94.5578 88.1375C96.6639 88.3516 98.5718 88.197 100.257 87.6697C99.4206 86.8213 98.7423 85.9213 98.2148 84.9619L98.5242 86.7103C96.9416 86.401 95.0377 84.8667 92.8047 82.1113C93.241 83.598 93.3481 84.6526 93.1299 85.287C92.6064 85.0848 92.0788 84.605 91.5355 83.8597C90.8096 82.698 90.3257 82.0637 90.1274 81.9566L91.3808 84.1729C88.4536 81.7703 86.3594 79.8514 85.1219 78.3964C88.2989 79.1853 91.2895 79.8038 94.0779 80.2082L97.7349 80.8426C102.491 81.695 106.457 82.0637 109.634 81.9566C109.309 82.1747 108.936 82.4364 108.515 82.7456C107.464 83.491 106.83 84.0619 106.612 84.498C106.191 84.498 105.652 84.6962 105.017 85.1323L105.342 85.9213C104.922 85.9213 104.224 86.0283 103.28 86.2464L103.434 86.7103H102.645ZM39.6636 52.6261C40.2982 53.3516 41.0439 53.7243 41.8808 53.7243C42.3131 52.9948 42.5154 52.5627 42.5154 52.4556C43.3681 54.7908 44.1575 56.2181 44.8992 56.7454L45.2085 56.1071L47.9057 58.1687C48.1238 57.3322 48.2309 56.7454 48.2309 56.4203C48.9766 57.3797 49.8135 58.1211 50.7733 58.6484V58.1687C51.1898 58.585 51.6102 59.0211 52.0426 59.4374L57.1076 63.8659C58.8131 65.2456 60.5028 66.6253 62.1924 68.001V68.1557C62.0814 68.794 62.2519 70.1697 62.6724 72.2789C61.5102 70.9151 60.3957 69.1032 59.3406 66.887L60.1299 71.9657C59.8047 71.2243 59.1225 69.9556 58.0714 68.1557C57.1076 66.5777 56.5364 65.309 56.3183 64.3496C56.0089 65.5231 56.1636 68.4213 56.7982 73.0837C56.1636 70.9626 55.6361 69.2737 55.2196 68.001C54.3668 65.6778 53.5141 64.2386 52.6772 63.7113C52.6772 65.091 52.8794 67.3667 53.3118 70.5424C51.1898 67.3667 49.9206 64.8293 49.5001 62.9223L49.6588 65.6183C49.1313 65.198 48.5403 64.302 47.9057 62.9223C47.2869 61.2334 46.7435 60.1193 46.327 59.592L46.4817 61.6536C46.1724 61.0193 45.6924 59.8101 45.0538 58.0141C44.4192 56.5273 43.8481 55.4727 43.3206 54.8384V55.3181C42.8843 54.6838 42.6225 54.204 42.5154 53.8789C41.6785 55.782 41.4603 57.9506 41.8808 60.3849C41.151 56.789 40.4093 54.204 39.6636 52.6261ZM63.1523 68.7147V68.6394L65.6788 70.5424V70.697C65.893 72.7111 66.2024 74.4 66.6387 75.7757C65.3655 72.9291 64.251 70.59 63.307 68.794C63.2157 68.794 63.1682 68.7623 63.1523 68.7147ZM33.48 47.2183C33.48 47.3293 33.5276 47.4364 33.6347 47.5434H33.7934C34.0076 46.0567 34.2733 45.1131 34.5827 44.6968V44.5263C35.2173 45.902 35.5426 48.0707 35.5426 51.0283L37.4464 49.1253L37.7597 51.9878L38.3944 50.2394C38.7196 51.183 39.0885 51.9283 39.5089 52.4556C38.9814 53.197 38.549 54.4657 38.2397 56.2617C38.0215 57.8436 37.9739 59.2233 38.085 60.3849C37.8668 59.6396 37.6487 58.0141 37.4464 55.4727C37.1212 53.2446 36.7047 51.7737 36.1772 51.0283C35.4355 51.8807 34.9079 53.3516 34.5827 55.4727C34.3804 56.7454 34.3169 58.0141 34.428 59.2828C33.7934 53.986 33.373 50.1323 33.1548 47.698C33.1548 47.9161 32.8454 50.1918 32.2108 54.5133C31.6833 57.2687 31.5762 59.703 31.8856 61.8083C30.9416 59.703 30.4141 56.8524 30.307 53.2446C30.1959 49.2324 30.0412 46.3818 29.827 44.6968C29.9341 46.9091 29.5137 50.3028 28.5538 54.8384C27.7328 58.7555 27.3163 61.8836 27.2846 64.191C27.2688 62.4585 26.8959 59.3462 26.1859 54.8384C25.6425 50.8103 25.5474 47.5434 25.8607 45.006L25.702 45.4858C25.8131 43.4717 26.4477 41.5211 27.6099 39.6141C27.8439 40.0026 28.0581 40.5894 28.2445 41.3506L28.3992 42.1396C28.5102 43.099 28.6014 44.3082 28.7085 45.795V48.3324L28.8791 47.3729C28.9743 46.5364 29.1885 45.6404 29.5137 44.6809C29.716 43.8444 30.0888 43.21 30.6163 42.7739C30.9416 42.3576 31.3581 42.1396 31.8856 42.1396C32.1037 44.4629 32.5202 46.3223 33.1548 47.698L33.3095 47.8527C33.3095 47.6544 33.373 47.4364 33.48 47.2183ZM9.60661 32.4737C9.52728 32.5213 9.45192 32.5848 9.35673 32.6323H9.51142L8.8768 32.9574C9.09495 32.3191 9.46779 31.6253 9.99531 30.8958H10.15C10.5823 30.7888 10.9988 30.5231 11.4192 30.1068C10.8282 30.8046 10.2095 31.5936 9.60661 32.4737ZM74.2462 75.1414C73.4093 75.0343 72.9293 74.9273 72.8183 74.8163C72.9293 75.1414 72.8817 75.6687 72.6636 76.4141C70.6487 74.5071 69.0701 73.0679 67.9079 72.1203L68.2173 73.5476L67.5827 71.9657V71.7952L74.2462 75.1414ZM17.6147 30.7412C17.7257 31.4707 17.9875 32.0575 18.4079 32.4737V31.3597C18.2969 30.9434 18.1898 30.5707 18.0827 30.2615C18.9315 29.6271 19.6772 29.1474 20.3118 28.8382C19.9865 29.9958 19.9389 32.2121 20.1412 35.4948C21.2121 34.5354 21.938 33.8059 22.3743 33.2667C22.6837 34.7534 22.9613 37.8181 23.1636 42.4647C24.2147 39.7251 24.9603 37.7111 25.3768 36.4384C25.2856 39.1978 25.3332 42.3735 25.5474 45.9655C25.2221 47.7456 24.5439 50.7191 23.4888 54.8384L22.3743 44.2131C21.1011 46.8615 20.2047 49.7597 19.6772 52.9353C19.1496 55.893 18.9315 58.6484 19.0425 61.1898C18.7173 57.689 18.515 54.993 18.4079 53.09C17.9875 49.494 18.0351 46.4928 18.5626 44.0585C16.7659 45.3153 15.3856 48.7526 14.4416 54.3587C14.2234 51.8173 14.751 48.1183 16.0202 43.2537C16.5477 41.8898 16.9206 40.8868 17.1347 40.2484C17.5552 38.8727 17.7694 37.8181 17.7694 37.0767C14.9215 39.8163 13.216 41.5647 12.6885 42.3101C12.4743 42.7264 12.1173 43.5193 11.5898 44.6968C11.1535 45.7474 10.7846 46.5364 10.4752 47.0637C10.3642 43.5788 11.324 38.9798 13.3231 33.2667C13.216 33.4808 12.3791 34.3332 10.7846 35.8041C9.51142 37.1838 8.67849 38.2384 8.24219 38.9798C8.24219 37.7111 8.67849 36.3314 9.51142 34.8605C10.6894 33.1557 11.4827 31.9504 11.8992 31.2051C12.4267 30.6778 12.7995 30.309 13.0137 30.091C13.3231 29.6707 13.5888 29.1474 13.803 28.5091C14.1163 28.295 14.4416 28.0928 14.751 27.8747C14.751 28.0928 14.8581 28.3545 15.0762 28.6677C14.8581 29.191 14.7034 29.7817 14.5963 30.4161C14.3781 31.5777 14.4852 32.5213 14.9215 33.2667L15.8655 32.3191C15.8655 32.4143 15.9131 32.5213 16.0202 32.6323V32.8028L16.1749 32.9574C16.282 33.1557 16.393 33.3737 16.5001 33.5918C16.393 32.9574 16.282 32.4301 16.1749 31.994C16.6112 31.5777 17.0752 31.1575 17.6147 30.7412Z" fill="#252426"/>
<path fill-rule="evenodd" clip-rule="evenodd" d="M19.1972 16.4604V16.615L19.0425 16.4604C18.0827 16.5714 17.1347 15.8736 16.1749 14.4028C15.2309 12.6068 14.4852 11.4451 13.9617 10.9178C11.7445 7.63508 10.4118 5.35936 9.99531 4.08671C9.79303 3.67042 9.72957 3.14312 9.83666 2.50878C9.83666 1.87443 9.77716 1.34713 9.68197 0.914984L9.20204 0.12205C8.8768 0.12205 8.56743 0.18549 8.24219 0.276677C8.8768 -0.0325661 9.72957 -0.0920418 10.7846 0.12205L12.6885 0.914984L13.0137 1.71981L12.2085 1.24009C12.3156 1.76342 12.272 2.50877 12.0538 3.45236C12.0538 4.41181 12.1173 5.24836 12.2085 5.99371C12.5338 7.15536 13.0613 8.26943 13.803 9.32403C14.3305 10.2835 15.1198 11.7544 16.1749 13.7684C17.1347 14.9301 17.928 15.501 18.5626 15.501C18.1422 14.7754 17.6147 13.5503 16.98 11.8614C17.7099 13.6574 18.4516 15.1917 19.1972 16.4604ZM85.1219 78.3963C85.0306 78.3487 84.9513 78.3329 84.872 78.317H85.0425C80.8144 77.3576 77.2051 76.303 74.262 75.1413L67.5827 71.811V71.9656C66.9481 71.5335 66.3293 71.1172 65.6788 70.6969V70.5423L63.1523 68.6393V68.7146C62.8746 68.5124 62.5494 68.3419 62.1924 68.1556V68.001C60.5028 66.6252 58.8131 65.2455 57.1076 63.8658L52.0426 59.4373C51.6102 59.021 51.1898 58.5849 50.7733 58.1686C43.3681 51.619 38.6085 46.6473 36.4865 43.2536C33.7458 37.8656 31.5127 33.6987 29.827 30.7411C28.6649 28.62 27.5028 26.824 26.3406 25.3373C26.0154 24.6078 25.595 24.0805 25.0674 23.7554C24.8532 23.4303 24.6986 23.1686 24.5875 22.9664L25.0674 22.8118C25.1785 22.903 25.2856 23.014 25.3768 23.121C27.1894 24.5007 29.0814 26.6694 31.0963 29.627C32.4766 31.6411 34.9079 35.804 38.3944 42.1554C42.3131 48.3957 47.0212 53.4586 52.5066 57.3796C56.2112 60.028 60.9192 63.6676 66.6387 68.3142C67.5827 69.0556 68.5901 69.8445 69.6452 70.6969C76.5228 75.0343 85.3083 77.8849 95.9817 79.2606H96.307C102.118 80.0059 106.83 80.5769 110.423 81.013H110.114L109.789 81.4768C109.789 81.5839 109.741 81.7385 109.634 81.9566C106.457 82.0636 102.491 81.6949 97.7349 80.8425L94.0779 80.2081C91.2895 79.8037 88.2989 79.1853 85.1219 78.3963Z" fill="#5F5B43"/>
<path fill-rule="evenodd" clip-rule="evenodd" d="M19.0425 17.7332C18.8244 17.5151 18.6221 17.3605 18.4079 17.2534C17.1347 16.6151 16.282 16.0918 15.8655 15.6715C15.2309 14.9301 14.4852 13.8755 13.6483 12.4958C12.5814 10.6998 11.8992 9.58578 11.5898 9.16949C9.68197 6.20789 7.62343 3.97976 5.39038 2.50887L7.14351 0.915074C7.45288 0.601866 7.82572 0.387777 8.24218 0.276767C8.56742 0.185579 8.8768 0.122139 9.20204 0.122139L9.68197 0.915074C9.79303 1.34722 9.83666 1.87452 9.83666 2.50887C9.72956 3.14321 9.77716 3.67051 9.99531 4.0868C10.4118 5.35945 11.7445 7.63517 13.9617 10.9179C14.4852 11.4452 15.2309 12.6069 16.1749 14.4028C17.1347 15.8737 18.0827 16.5715 19.0425 16.4605L19.1972 16.6151C19.0862 16.9442 19.0425 17.3129 19.0425 17.7332Z" fill="#504C39"/>
<path fill-rule="evenodd" clip-rule="evenodd" d="M5.39019 2.50875C7.62324 3.97964 9.68177 6.20778 11.5896 9.16938C11.899 9.58567 12.5812 10.6997 13.6481 12.4957C14.485 13.8754 15.2307 14.93 15.8653 15.6714C16.2818 16.0917 17.1345 16.615 18.4077 17.2533C18.6219 17.3604 18.8242 17.515 19.0424 17.733C18.9313 18.2603 18.7171 18.6766 18.4077 19.0017C17.2456 17.9471 16.3452 17.7766 15.7106 18.522C15.3854 18.7401 15.3378 19.2039 15.5559 19.9453C15.3378 19.529 15.2307 19.1564 15.2307 18.8471C14.8103 17.6696 13.0135 14.6644 9.83646 9.80372L5.08081 2.81799L5.39019 2.50875Z" fill="#413D2D"/>
<path fill-rule="evenodd" clip-rule="evenodd" d="M5.71561 29.3019C3.70468 29.7341 2.43148 29.9363 1.90395 29.9363H1.74927C1.86033 29.7341 2.06261 29.5795 2.38785 29.4724C3.33184 28.9451 4.71213 28.509 6.50888 28.1998H7.62343C8.98785 28.0927 10.1024 27.9381 10.9552 27.72H11.2645C11.3716 27.613 11.5263 27.5654 11.7445 27.5654L10.7846 28.0451L9.20203 28.509C8.67847 28.62 8.19458 28.7271 7.77811 28.8381C7.03244 28.9451 6.3542 29.0997 5.71561 29.3019ZM6.66357 24.7029C7.18713 24.6078 7.62343 24.5443 7.9328 24.5443C9.9477 24.5443 11.681 24.81 13.1684 25.3373C13.2794 25.3373 13.3865 25.3968 13.4778 25.5078L13.3231 26.9311C13.216 26.9311 13.0613 26.9786 12.8431 27.0857H11.7445C10.4752 26.9786 8.87679 26.7764 6.98881 26.4513C6.87775 26.3443 6.66357 26.2967 6.3542 26.2967C6.02895 26.1897 5.76321 26.1421 5.54506 26.1421C4.49398 25.817 3.39133 25.4443 2.2173 25.028C4.12114 24.81 5.60852 24.7029 6.66357 24.7029ZM14.9215 19.9453C15.449 20.6907 15.8179 21.325 16.0202 21.8523C17.1823 21.9594 18.4516 22.2686 19.8318 22.8118H19.6772L13.803 22.3321C14.1163 22.114 14.5487 22.007 15.0762 22.007L13.9616 21.8523C13.6483 21.4321 13.3865 20.9524 13.1684 20.4251C12.5338 19.3744 12.0062 18.2604 11.5898 17.0987C11.3716 16.2463 11.1535 15.4098 10.9552 14.5574C10.8441 14.0301 10.737 13.5028 10.6299 12.9794C11.0464 14.2481 11.9467 15.8261 13.3231 17.7331C13.9616 18.4745 14.4852 19.2039 14.9215 19.9453ZM23.4888 12.809C23.7982 12.0795 24.0163 11.7068 24.1076 11.7068C24.0163 12.127 24.06 12.7614 24.2781 13.6138V13.7684C24.6985 13.6574 25.115 13.5503 25.5473 13.4433C25.6584 13.4433 25.8131 13.3957 26.0154 13.2887C26.65 13.0706 27.0823 12.8684 27.2846 12.6504C27.1894 13.2887 26.9752 13.8755 26.65 14.4028C26.65 14.6049 26.6024 14.819 26.4953 15.0371C26.1859 15.3463 25.8607 15.719 25.5473 16.1353C24.6985 16.9877 23.58 17.7331 22.2196 18.3674C22.529 18.0423 22.7907 17.7331 23.0089 17.408C23.3183 16.8807 23.58 16.4604 23.7982 16.1353C24.0163 15.501 24.1076 14.9301 24.1076 14.4028C23.6911 15.3463 23.0089 16.2463 22.049 17.0987C21.5215 17.6221 20.6687 18.3674 19.5225 19.311C19.8318 18.6766 20.0936 17.7331 20.3118 16.4604C20.407 16.2463 20.4665 15.9807 20.4665 15.6714C20.4665 15.5644 20.5141 15.501 20.6211 15.501C20.7322 14.6644 20.8393 13.6574 20.9464 12.4957L22.049 15.0371C22.4814 14.2957 22.8542 13.6574 23.1636 13.1341L23.4888 12.809ZM19.8318 22.8118C21.9538 22.2686 23.6911 22.5937 25.0674 23.7554C25.5949 24.0805 26.0154 24.6078 26.3406 25.3373C26.65 25.7694 26.9276 26.2967 27.1299 26.9311C26.8205 26.713 26.4477 26.5148 26.0154 26.2967C23.6911 24.5919 21.6286 23.4303 19.8318 22.8118ZM28.8791 18.0423H28.7085C28.6173 18.2604 28.5102 18.4745 28.3991 18.6766L27.4552 19.6361C26.9118 19.9453 26.4477 20.211 26.0154 20.4251L27.2846 20.1L33.9481 18.8471C33.5276 19.2634 32.7383 19.5766 31.5762 19.7907C30.4141 20.0088 29.6089 20.2704 29.1885 20.5797C29.4066 20.6907 29.6684 20.7383 29.9817 20.7383C30.8305 20.5361 31.5762 20.4726 32.2108 20.5797C32.306 20.4726 32.4131 20.4251 32.5202 20.4251C34.3169 20.0088 35.4354 19.7907 35.8519 19.7907C35.015 20.5361 33.5276 21.107 31.4215 21.5431C30.9852 21.5431 30.6163 21.5867 30.307 21.6977C27.6574 22.225 25.5949 22.2845 24.1076 21.8523H25.2221C23.8458 21.6343 23.0089 21.1704 22.6836 20.4251H22.049L22.6836 20.2704V20.4251C23.5364 20.211 24.3733 19.8383 25.2221 19.311C25.3332 19.2039 25.4878 19.1088 25.702 19.0018C25.9043 18.7837 26.1859 18.5855 26.4953 18.3674C26.5707 18.2128 26.6817 18.1018 26.8205 18.0423H26.9752C27.1894 17.7331 27.5028 17.4674 27.9192 17.2533V17.0987C28.772 16.1353 29.3431 15.1917 29.6684 14.2481C29.7794 14.5574 29.827 14.8825 29.827 15.1917C29.827 15.612 29.7794 16.0917 29.6684 16.615C29.4542 16.8331 29.2995 17.1423 29.1885 17.5784C29.0814 17.6696 28.9743 17.8401 28.8791 18.0423Z" fill="#ACA8AD"/>
<path fill-rule="evenodd" clip-rule="evenodd" d="M10.7845 28.0292C10.1499 28.3543 9.72945 28.5565 9.5113 28.6676C8.87668 29.627 8.46022 30.2613 8.24207 30.5706C8.15084 30.5706 8.08738 30.634 8.08738 30.7411C8.08738 30.416 7.98029 29.8887 7.778 29.1473V28.838C8.19447 28.727 8.67836 28.62 9.20192 28.509L10.7845 28.0292ZM10.955 27.72C10.1023 27.9222 8.98774 28.0927 7.62332 28.1997H6.50877C4.71202 28.509 3.33173 28.9292 2.38774 29.4565C2.58606 29.2543 2.9113 29.0363 3.33173 28.838V28.6676L6.50877 26.931L6.9887 26.4513C8.87668 26.7764 10.4751 26.9786 11.7444 27.0857C11.5262 27.3037 11.2644 27.5059 10.955 27.72ZM13.1683 25.3372C11.6809 24.8099 9.9476 24.5443 7.93269 24.5443C7.62332 24.5443 7.18702 24.6077 6.66346 24.7029C7.07993 24.0804 7.51623 23.6483 7.93269 23.4461V22.8118C6.9887 23.121 6.24303 23.4937 5.7155 23.91C6.44531 23.0734 7.51623 22.4867 8.87668 22.1774C9.18606 22.0664 9.97933 21.9594 11.2644 21.8523C11.0304 21.8999 10.8757 22.0069 10.7845 22.1774C11.1097 22.0664 11.4826 21.9594 11.899 21.8523H11.5897C11.9466 21.8365 12.3155 21.7889 12.6883 21.6977L13.1683 21.218C11.7919 20.9087 9.72945 20.6431 6.9887 20.425C9.5113 20.0087 11.5897 20.0087 13.1683 20.425C13.3864 20.9523 13.6482 21.4321 13.9615 21.8523L15.0761 22.0069C14.5486 22.0069 14.1162 22.114 13.8029 22.332L19.677 22.8118H19.8317C18.4514 22.2686 17.1822 21.9594 16.0201 21.8523C15.8178 21.325 15.4489 20.6907 14.9214 19.9453C15.1197 20.0563 15.3379 20.1634 15.556 20.2704V19.9453C15.3379 19.2039 15.3855 18.7401 15.7107 18.522C16.3453 17.7766 17.2457 17.9471 18.4078 19.0017C18.7172 18.6766 18.9314 18.2603 19.0424 17.733C19.0424 17.3128 19.0861 16.9441 19.1971 16.615V16.4604C19.0861 15.826 19.0424 15.1917 19.0424 14.5573L20.3117 16.4604C20.0935 17.733 19.8317 18.6766 19.5224 19.311C20.6845 18.3674 21.5214 17.622 22.0489 17.0987C23.0088 16.2463 23.691 15.3463 24.1075 14.4027C24.1075 14.93 24.0162 15.5009 23.7981 16.1353C23.4887 16.3533 23.1635 16.5714 22.8541 16.7736L23.0088 17.4079C22.7906 17.733 22.5288 18.0423 22.2195 18.3674C23.5799 17.733 24.6984 16.9877 25.5472 16.1353C25.222 16.5714 24.9602 16.8806 24.7421 17.0987C27.5026 16.0441 29.2518 14.4503 29.9816 12.3411C30.3069 13.1776 30.2434 14.1371 29.8269 15.1917C29.8269 14.8824 29.7793 14.5573 29.6683 14.2481C29.343 15.1917 28.7719 16.1353 27.9191 17.0987C27.812 17.0987 27.7168 17.1423 27.6097 17.2533H27.9191C27.5026 17.4674 27.1893 17.733 26.9751 18.0423H26.8204C26.1541 18.181 25.6107 18.3832 25.222 18.6766C25.6424 18.5696 26.0748 18.4744 26.4952 18.3674C26.1858 18.5696 25.9042 18.7837 25.7019 19.0017C25.2855 19.0017 24.8531 19.1088 24.4327 19.311H25.222C24.3732 19.8383 23.5363 20.2109 22.6835 20.425V20.2704L22.0489 20.425H22.6835C23.0088 21.1704 23.8457 21.6343 25.222 21.8523H24.1075C25.5948 22.2686 27.6573 22.225 30.3068 21.6977C30.6162 21.5867 30.9851 21.5431 31.4214 21.5431C31.2032 21.6343 31.0486 21.7413 30.9415 21.8523C30.4139 21.9594 29.934 22.0664 29.5136 22.1774L29.343 22.332H29.1883C27.9191 22.5342 26.757 22.5937 25.7019 22.4867L25.0673 22.8118L24.5874 22.9664C24.6984 23.1686 24.8531 23.4302 25.0673 23.7553C23.691 22.5937 21.9537 22.2845 19.8317 22.8118C21.6285 23.4302 23.691 24.5919 26.0153 26.2967C26.2294 26.931 26.4476 27.613 26.6499 28.3543C26.4476 27.831 25.9201 27.1927 25.0673 26.4513L24.4327 25.817C24.5715 25.8764 24.7103 25.9716 24.8373 26.0469C23.9845 25.3531 23.0088 24.7306 21.8942 24.2351V24.3897H21.7356C21.7356 24.5007 21.8466 24.917 22.0489 25.6623L21.5809 24.5443L20.7757 25.6623C20.4663 24.8099 20.2482 24.1756 20.1411 23.7553V23.91L19.1971 24.0646C19.0861 24.1756 19.0424 24.2826 19.0424 24.3897C18.8243 23.9575 18.7172 23.6007 18.7172 23.2756C17.3528 23.91 16.6547 25.135 16.6547 26.931L16.3453 24.3897L14.9214 25.6623V25.028L14.2868 25.3372L13.8029 25.817C13.8029 25.1826 13.8505 24.7029 13.9615 24.3897C13.6482 24.7029 13.3864 25.028 13.1683 25.3372ZM1.90385 29.9362C2.43137 29.9362 3.70457 29.734 5.7155 29.3019C5.50132 29.4089 5.28317 29.516 5.08089 29.627C3.59351 30.7886 2.0625 32.5212 0.479928 34.8604C0.154687 34.226 0.0475962 33.5917 0.154687 32.9573L0 33.1119L0.154687 32.6322C0.372837 31.6847 0.94399 30.7886 1.90385 29.9362ZM5.54495 26.1421C5.7631 26.1421 6.02885 26.1896 6.35409 26.2967C5.50132 26.713 4.9738 26.931 4.75565 26.931C4.9738 26.6059 5.23558 26.3443 5.54495 26.1421ZM23.4887 12.8089L23.1635 13.134C23.2706 12.916 23.3816 12.6503 23.4887 12.3411V12.8089ZM25.5472 13.4433C25.1149 13.5503 24.6984 13.6574 24.278 13.7684V13.6138C24.8055 13.2887 25.2855 13.0706 25.7019 12.9794C25.7019 13.1776 25.6424 13.3481 25.5472 13.4433ZM10.955 14.5573C11.1534 15.4097 11.3715 16.2463 11.5897 17.0987C10.955 16.0441 10.6893 15.0846 10.7845 14.2481C10.7845 14.3393 10.844 14.4503 10.955 14.5573ZM20.4663 15.6714L19.0424 9.6491C19.7841 11.8614 20.3117 13.812 20.621 15.5009C20.5139 15.5009 20.4663 15.5644 20.4663 15.6714ZM26.4952 15.0371C26.6023 14.819 26.6499 14.6208 26.6499 14.4027C27.0822 13.8754 27.455 13.4433 27.7644 13.134C27.2369 13.8754 26.8204 14.5098 26.4952 15.0371ZM19.0424 28.1997V29.3019C18.7172 28.9927 18.4078 28.5724 18.0826 28.0451C18.4078 28.1403 18.7172 28.1997 19.0424 28.1997ZM22.3742 27.2403C22.3742 27.3632 22.39 27.5059 22.4495 27.6447C22.2036 27.1174 21.799 26.7288 21.2556 26.4513V25.6623L22.3742 27.2403ZM29.1883 17.5784C29.2994 17.1423 29.4541 16.8331 29.6683 16.615C30.3069 16.3058 30.8304 16.0917 31.2508 15.9806C33.0476 15.4573 34.535 15.719 35.6971 16.7736C35.3877 16.7736 33.6822 16.9877 30.6162 17.4079C30.0887 17.4079 29.6088 17.4674 29.1883 17.5784ZM28.879 18.0423C30.0411 17.733 30.7868 17.5784 31.0962 17.5784C31.8379 17.5784 32.8929 17.733 34.2732 18.0423C35.4948 18.3515 36.4269 18.4586 37.0457 18.3674C35.8835 18.5696 33.7933 18.6766 30.7868 18.6766H28.399C28.5101 18.4744 28.6013 18.2603 28.7084 18.0423H28.879ZM27.2845 20.0999L26.0153 20.425C26.4476 20.2109 26.9117 19.9453 27.455 19.6361L32.0401 18.8471C31.4214 19.0493 29.8269 19.4656 27.2845 20.0999ZM14.1162 27.3949C14.0052 27.613 13.9139 27.9222 13.8029 28.3543V28.509C13.5887 29.1473 13.323 29.6706 13.0136 30.1067C12.7994 30.3089 12.4266 30.6776 11.899 31.2049C11.3239 31.4983 10.5505 31.9344 9.60649 32.4736C10.2094 31.5935 10.8281 30.8045 11.4191 30.1067C11.7444 29.8887 12.0537 29.5794 12.379 29.1473C12.5812 28.9451 12.7994 28.6676 13.0136 28.3543C13.323 27.9222 13.6958 27.613 14.1162 27.3949ZM15.8654 30.8957C15.7583 30.7886 15.7107 30.634 15.7107 30.416C15.6036 29.9204 15.556 29.516 15.556 29.2226C15.556 29.4089 15.6195 29.5953 15.7107 29.7816C15.7107 30.1067 15.7583 30.4794 15.8654 30.8957ZM17.6145 30.7411C17.4004 30.3089 17.2457 29.7816 17.1346 29.1473V28.838C17.1346 29.0521 17.1981 29.2543 17.2893 29.4565L18.4078 31.3596V32.4736C17.9874 32.0573 17.7097 31.4706 17.6145 30.7411ZM26.0153 17.733H24.1075L23.0088 18.522L22.8541 19.1563L25.5472 17.8877L26.0153 17.733Z" fill="#88838A"/>
<path fill-rule="evenodd" clip-rule="evenodd" d="M9.99521 30.8958C9.46769 30.8958 8.67838 31.0504 7.62334 31.3597H7.2981C7.40519 31.3597 7.45278 31.3161 7.45278 31.2051H7.62334C7.71456 30.8958 7.88512 30.7412 8.0874 30.7412C8.0874 30.6342 8.15086 30.5707 8.24209 30.5707L10.7845 28.0294L11.7444 27.5655C11.5262 27.5655 11.3715 27.6131 11.2644 27.7201H10.9551C11.2644 27.506 11.5262 27.3038 11.7444 27.0858H12.843C13.0612 26.9787 13.2159 26.9312 13.323 26.9312L13.4777 25.5079C13.3864 25.3969 13.2793 25.3374 13.1683 25.3374C13.3864 25.0281 13.6482 24.703 13.9616 24.3898C13.8505 24.703 13.8029 25.1828 13.8029 25.8171V26.7766L14.9214 25.6625L16.3453 24.3898L16.6547 26.9312C16.6547 25.1352 17.3528 23.9101 18.7172 23.2758C18.7172 23.6009 18.8243 23.9735 19.0424 24.3898C19.0424 24.6079 19.0861 24.8259 19.1971 25.0281C19.6136 24.6079 19.9388 24.2352 20.1411 23.9101V23.7555C20.2482 24.1757 20.4664 24.8101 20.7757 25.6625L21.5809 24.5444L22.0489 25.6625L21.8943 24.3898V24.2352C23.0088 24.7308 23.9845 25.3532 24.8373 26.0471C24.7104 25.9717 24.5715 25.8924 24.4327 25.8171C24.2146 25.7061 24.0599 25.6625 23.9528 25.6625C22.7906 25.4444 22.2631 25.9717 22.3742 27.2404L21.2557 25.6625V26.4514L21.101 27.395L20.3117 26.1422C20.3117 26.6695 20.2482 27.506 20.1411 28.6677C20.0499 28.5725 19.6771 28.4021 19.0424 28.1999C18.7172 28.1999 18.4078 28.1404 18.0826 28.0452C17.9715 27.9382 17.8803 27.8748 17.7693 27.8748C17.7693 28.0928 17.8803 28.7272 18.0826 29.7818V30.2615C18.1897 30.5707 18.2968 30.9434 18.4078 31.3756L17.2893 29.4725C17.1981 29.2703 17.1346 29.0523 17.1346 28.8382C16.7182 28.4021 16.3453 27.9858 16.0201 27.5655C15.8178 27.9858 15.6473 28.4179 15.556 28.8382V29.2227C15.556 29.5161 15.6036 29.9205 15.7107 30.4161C15.7107 30.6342 15.7583 30.7888 15.8654 30.8958C15.8654 31.2051 15.9725 31.5777 16.1748 32.0099C16.2819 32.4302 16.3929 32.9575 16.5 33.5918C16.3929 33.3737 16.2819 33.1715 16.1748 32.9574L16.0201 32.8028V32.6323C15.913 32.5372 15.8654 32.4302 15.8654 32.3191C15.6473 31.7958 15.4926 31.1575 15.3855 30.4161C15.2903 29.6707 15.1832 29.0998 15.0761 28.6677C14.858 28.3545 14.7509 28.0928 14.7509 27.8748C14.6557 27.6607 14.5486 27.4585 14.4415 27.2404C14.3304 27.2404 14.2233 27.3039 14.1162 27.395C13.6958 27.6131 13.323 27.9223 13.0136 28.3545C12.7994 28.6677 12.5813 28.9452 12.379 29.1474C12.0537 29.5796 11.7444 29.8888 11.4191 30.1069C10.9987 30.5231 10.5822 30.7888 10.1499 30.8958H9.99521Z" fill="#6C686E"/>
<path fill-rule="evenodd" clip-rule="evenodd" d="M104.069 88.7719C104.069 88.6767 104.18 88.6172 104.394 88.6172H104.874C104.66 88.7243 104.394 88.7719 104.069 88.7719ZM98.6787 89.097H100.428C99.6861 89.2992 99.2062 89.3586 99.0039 89.2516C98.8968 89.1564 98.7858 89.097 98.6787 89.097ZM74.246 75.1414C77.2049 76.303 80.7984 77.3576 85.0305 78.3171H84.8718C84.9512 78.3329 85.0305 78.3488 85.1217 78.3964C86.3592 79.8514 88.4535 81.7703 91.3806 84.1729L90.1114 81.9566C90.3256 82.0637 90.8095 82.698 91.5353 83.8597C92.0628 84.605 92.6062 85.0847 93.1298 85.2869C93.3321 84.6526 93.2408 83.598 92.8045 82.1112C95.0376 84.8667 96.9295 86.401 98.524 86.7102L98.2146 84.9777C98.7422 85.9213 99.4204 86.8213 100.257 87.6697C98.5716 88.197 96.6638 88.3516 94.5577 88.1375H94.403C94.6965 88.3357 95.0376 88.4468 95.4263 88.4626H94.403C93.2408 88.1375 92.4515 87.6102 92.0152 86.8807C92.1263 88.3516 92.3881 89.7313 92.8045 91L87.2596 84.3433C87.4777 86.6627 88.0489 88.5697 89.0087 90.0406C86.4703 88.1375 84.6735 86.3376 83.6026 84.6526C83.6026 85.1918 83.7732 86.0283 84.0825 87.19C84.5188 88.3516 84.7172 89.204 84.7172 89.7313C83.8684 89.3111 82.8133 88.3516 81.5441 86.8807C82.1787 88.2604 82.611 89.2516 82.8133 89.8859C81.0166 89.6837 79.2793 88.415 77.5777 86.0918C76.3045 84.1848 75.313 82.6544 74.5712 81.4928C74.246 80.9655 73.9366 80.5333 73.6114 80.2201C73.6114 80.4382 73.7819 80.8584 74.0913 81.4928C74.4166 82.3293 75.0512 83.598 75.9952 85.2869C77.2644 87.7331 77.7483 89.3111 77.423 90.0564C75.313 89.7313 72.9728 86.8213 70.4502 81.3223C70.7596 84.4028 71.2395 86.7737 71.8741 88.4626C70.6049 88.5697 69.4904 88.0424 68.5265 86.8807C67.6896 85.2869 66.9479 84.1848 66.3133 83.5504C66.4204 85.0213 66.5751 87.2534 66.7932 90.211C65.1036 88.415 63.8343 86.7737 62.9816 85.2869L63.4615 86.8807C61.7718 85.8142 60.3321 84.0777 59.1699 81.6474C58.5353 80.2677 57.6984 78.099 56.6275 75.1414C57.1709 79.8038 58.0712 83.598 59.3405 86.5556C58.2696 86.1393 57.3256 85.3028 56.4728 84.0301C55.747 82.3293 55.156 81.1201 54.7395 80.3787L55.2036 85.9371C54.0414 84.7596 52.8317 83.1341 51.5625 81.013C50.2932 78.6897 49.3334 76.9374 48.6948 75.7757C49.1311 79.5858 49.9204 82.5434 51.0825 84.6684C49.5952 84.2323 48.1712 82.7614 46.8068 80.2201C45.6288 78.21 44.8395 76.2554 44.4191 74.3524C44.5301 75.514 44.899 77.092 45.5336 79.106C46.0611 81.3381 46.3705 82.9161 46.4816 83.8755C44.6848 82.809 42.9952 80.5333 41.4007 77.0484C39.9252 73.1432 38.8107 70.4512 38.069 68.9644L36.7958 65.4795V66.4231C37.0139 70.8675 37.8667 74.507 39.3382 77.3735C36.7958 73.1273 35.1696 68.3737 34.4279 63.0928C34.6262 64.9998 34.7372 67.5847 34.7372 70.8675C34.9514 74.5705 35.8518 77.5281 37.4343 79.7404C34.3803 77.4171 32.2107 72.2789 30.9414 64.3496C30.6162 65.198 30.521 66.205 30.6162 67.3667C30.6162 68.001 30.7233 69.008 30.9414 70.3877C29.7793 69.3173 28.7718 67.105 27.9191 63.7113C27.9191 65.6183 28.1372 68.0486 28.5537 71.0062C29.0812 74.9273 29.4065 77.3576 29.5135 78.3171C28.0262 76.196 26.9275 73.7181 26.1858 70.8516L26.6498 73.5476C25.0673 72.0767 24.0162 69.8446 23.4887 66.887C22.6359 62.9857 22.0013 60.5554 21.5809 59.592C21.1485 63.7113 21.3667 67.5689 22.2194 71.1767C21.3667 71.597 20.2045 70.5424 18.7172 68.001C17.3527 65.7729 16.1747 63.295 15.2307 60.5395C14.7032 62.0263 14.6556 64.5637 15.076 68.1556C13.0611 66.4707 11.9466 63.5566 11.7443 59.4374C11.5262 54.2516 11.2168 51.0759 10.7845 49.9143C9.72941 51.401 9.31294 53.3516 9.51126 55.7819C9.72941 58.8506 9.72941 60.8646 9.51126 61.8082C8.24203 60.1193 7.35753 58.4303 6.81811 56.7295C6.50874 56.107 6.29059 54.5608 6.1835 52.1424C5.98121 50.0213 5.60838 48.5346 5.08085 47.698C5.17604 44.6333 5.08085 42.4647 4.75561 41.196C3.70453 43.5193 3.22064 46.4293 3.33169 49.9143C3.12941 46.013 3.06595 43.4082 3.17701 42.1396C3.39119 39.507 3.59347 37.9132 3.81162 37.3859C4.01391 36.6406 4.64852 35.5899 5.71547 34.2102C6.55237 33.0486 7.18698 32.105 7.62328 31.3597C8.67833 31.0504 9.46763 30.8958 9.99516 30.8958C9.46763 31.6253 9.09479 32.3191 8.87665 32.9574L9.51126 32.6323H9.35657C9.45177 32.5847 9.52713 32.5213 9.60645 32.4737C10.5504 31.9187 11.3239 31.4984 11.899 31.205C11.4825 31.9504 10.6893 33.1556 9.51126 34.8604C8.67833 36.3313 8.24203 37.711 8.24203 38.9797C8.67833 38.2383 9.51126 37.1837 10.7845 35.804C12.3789 34.3331 13.2158 33.4807 13.3229 33.2667C11.3239 38.9797 10.364 43.5787 10.4751 47.0637C10.7845 46.5364 11.1533 45.7474 11.5896 44.6968C12.1172 43.5193 12.4741 42.7263 12.6883 42.31C13.2158 41.5647 14.9214 39.8163 17.7692 37.0767C17.7692 37.8181 17.555 38.8727 17.1346 40.2484C16.9204 40.8867 16.5476 41.8898 16.02 43.2536C14.7508 48.1183 14.2233 51.8173 14.4414 54.3586C15.3854 48.7526 16.7657 45.3152 18.5625 44.0585C18.0349 46.4928 17.9715 49.494 18.4078 53.0899C18.5149 54.993 18.7172 57.6889 19.0424 61.1897C18.9313 58.6484 19.1495 55.893 19.677 52.9353C20.2045 49.7596 21.1009 46.8615 22.3741 44.2131L23.4887 54.8384C24.5437 50.7191 25.222 47.7614 25.5472 45.9655L25.8605 45.006C25.5472 47.5434 25.6583 50.8261 26.1858 54.8384C26.8958 59.3462 27.2686 62.4584 27.2845 64.191C27.3162 61.8836 27.7327 58.7554 28.5537 54.8384C29.5135 50.3028 29.934 46.909 29.8269 44.6968C30.0411 46.3817 30.1958 49.2323 30.3068 53.2604C30.4139 56.8524 30.9414 59.703 31.8854 61.8241C31.576 59.703 31.6831 57.2687 32.2107 54.5291C32.8453 50.1918 33.1547 47.9161 33.1547 47.698C33.3728 50.1323 33.7932 53.986 34.4279 59.2827C34.3168 58.014 34.3803 56.7454 34.5825 55.4727C34.9078 53.3675 35.4353 51.8807 36.177 51.0283C36.7045 51.7737 37.121 53.2604 37.4462 55.4727C37.6485 58.014 37.8667 59.6396 38.0848 60.3849C37.9738 59.2233 38.0214 57.8594 38.2395 56.2617C38.5489 54.4657 38.9812 53.197 39.5087 52.4556L39.6634 52.6261C40.4091 54.204 41.1508 56.789 41.8806 60.3849C41.4602 57.9506 41.6783 55.7978 42.5152 53.8948C42.6223 54.204 42.8841 54.6837 43.3204 55.3181V54.8384C43.8479 55.4727 44.4191 56.5273 45.0537 58.014C45.6923 59.81 46.1722 61.0193 46.4816 61.6536L46.3269 59.592C46.7434 60.1193 47.2867 61.2334 47.9055 62.9223C48.5401 64.302 49.1311 65.198 49.6586 65.6341L49.5 62.9223C49.9204 64.8293 51.1896 67.3667 53.3116 70.5424C52.8793 67.3667 52.677 65.091 52.677 63.7271C53.5139 64.2544 54.3667 65.6777 55.2194 68.001C55.6359 69.2737 56.1634 70.9626 56.798 73.0837C56.1634 68.4371 56.0087 65.5231 56.3181 64.3615C56.5363 65.309 57.1074 66.5777 58.0712 68.1556C59.1223 69.9556 59.8045 71.2243 60.1298 71.9657L59.3405 66.887C60.3955 69.1191 61.5101 70.915 62.6722 72.2789C62.2518 70.1697 62.0812 68.794 62.1923 68.1556C62.5492 68.342 62.8745 68.5283 63.1521 68.7147C63.168 68.7622 63.2156 68.794 63.3068 68.794C64.2508 70.5899 65.3654 72.9132 66.6386 75.7757C66.2023 74.4 65.8929 72.711 65.6787 70.697C66.3133 71.1172 66.9479 71.5335 67.5825 71.9657L68.2172 73.5476L67.9078 72.1203C69.0699 73.0679 70.6485 74.507 72.6634 76.414C72.8657 75.6687 72.9292 75.1414 72.8181 74.8163C72.9292 74.9273 73.4091 75.0343 74.246 75.1414ZM8.08734 30.7412C7.88506 30.7412 7.71451 30.8958 7.62328 31.205V31.0504C7.62328 31.1575 7.55982 31.205 7.45273 31.205C7.45273 31.316 7.40513 31.3597 7.29804 31.3755C6.77052 31.7958 5.91775 32.5372 4.75561 33.5918C3.39119 34.7534 2.43133 35.7604 1.90381 36.597L2.3877 34.5353C2.80417 33.5918 4.22809 32.0574 6.66342 29.9363C6.87761 29.7341 7.25044 29.4725 7.77797 29.1474C7.98025 29.8888 8.08734 30.4161 8.08734 30.7412ZM102.645 86.7102H102.49C102.288 86.401 102.118 86.0759 102.026 85.7667L102.645 86.7102ZM8.24203 30.5707C8.46018 30.2614 8.87665 29.6271 9.51126 28.6676C9.72941 28.5566 10.1498 28.3544 10.7845 28.0293C10.0547 28.7747 9.20189 29.6271 8.24203 30.5707ZM27.6097 39.6141V39.4594C27.8556 39.8638 28.0579 40.4982 28.2443 41.3664C28.0579 40.5894 27.8437 40.0185 27.6097 39.6141ZM33.4799 47.2183C33.3728 47.4363 33.3093 47.6544 33.3093 47.8526L33.1547 47.698C32.52 46.3381 32.1036 44.4787 31.8854 42.1554H32.0401C32.2583 44.0585 32.7382 45.7474 33.4799 47.2183Z" fill="#282629"/>
<path fill-rule="evenodd" clip-rule="evenodd" d="M16.9799 11.8614C17.6145 13.5504 18.1421 14.7754 18.5625 15.501C17.9279 15.501 17.1346 14.9301 16.1747 13.7684C15.1197 11.7544 14.3304 10.2835 13.8029 9.32404C13.0612 8.26944 12.5336 7.15537 12.2084 5.99372C12.1172 5.24837 12.0537 4.41182 12.0537 3.45238C12.2719 2.50879 12.3155 1.76344 12.2084 1.2401L13.0136 1.71983L16.9799 11.8614Z" fill="#736F51"/>
<path fill-rule="evenodd" clip-rule="evenodd" d="M74.0912 81.4768C73.7819 80.8425 73.6232 80.4222 73.6232 80.2081C73.9366 80.5332 74.2618 80.9495 74.5712 81.4768H74.0912ZM29.1882 22.332H29.3429C33.1546 23.3866 35.8041 24.2351 37.2756 24.8734C36.5498 24.9646 34.9077 24.917 32.3653 24.7029C34.3326 26.1262 36.1293 27.1332 37.7595 27.72C37.4184 27.6447 37.0456 27.5337 36.641 27.3949C35.4789 27.0857 34.642 26.9786 34.1184 27.0857C35.0624 27.72 35.9588 28.509 36.8116 29.4565C35.931 29.4565 35.0624 29.1473 34.1938 28.509C39.0287 32.2278 42.1265 34.4441 43.475 35.1696C42.42 34.9515 40.9326 34.4282 39.0287 33.5917C39.7704 34.7533 41.0873 36.022 42.9951 37.3858C45.5335 39.2889 47.0209 40.4505 47.4414 40.8866C45.8469 40.7756 44.2048 40.1889 42.5152 39.1343C46.6521 41.8778 50.2456 43.6897 53.3116 44.5262C51.1896 44.1059 49.4563 43.5192 48.076 42.7738C49.02 44.8949 51.61 46.8455 55.8381 48.6455C55.1123 48.5345 53.0498 47.8525 49.6585 46.5838C51.4553 48.5979 53.5138 50.0212 55.8381 50.8736L55.0488 51.0282C56.9527 52.2969 59.975 54.1563 64.096 56.5906C63.6796 56.5906 62.9339 56.4202 61.8828 56.107C60.919 55.6748 60.1773 55.5202 59.6498 55.6272L61.0737 56.8999L59.3404 56.4202C61.8828 60.028 67.2096 63.5129 75.3605 66.8869C74.4165 66.7798 72.9291 66.4706 70.9142 65.9433C69.1174 65.7252 67.6896 65.6776 66.6385 65.7887C73.0838 69.6899 79.0174 71.7515 84.4077 71.9656C87.8188 74.1343 91.3805 75.6369 95.1129 76.4893C93.2408 76.1324 90.9918 76.0413 88.3741 76.2435C92.9155 77.417 96.4614 77.9919 99.0039 77.9919L93.7683 78.317C94.51 78.7333 95.3469 79.0465 96.3068 79.2606H95.9815C85.3081 77.8848 76.5226 75.0342 69.6569 70.6969C68.5899 69.8604 67.5825 69.0555 66.6385 68.326C67.5825 68.6392 68.4352 68.7939 69.1769 68.7939C66.9479 67.9573 65.5834 67.1049 65.0559 66.2525L64.576 64.52L56.798 58.014C56.1634 57.4867 55.4216 56.6343 54.5847 55.4726L47.4414 48.023C45.6446 46.227 43.6773 43.7808 41.5672 40.732C39.1358 37.2312 37.2756 34.6423 36.0064 32.9573C34.3167 30.7411 32.8928 28.509 31.7307 26.2967C31.4213 25.4443 31.2031 24.8099 31.096 24.3897C30.8938 23.8664 30.4614 23.3391 29.8268 22.7959C29.5135 22.5937 29.2993 22.4391 29.1882 22.332ZM30.9414 21.8523L32.52 22.1774C31.4689 22.3796 30.4614 22.3796 29.5135 22.1774C29.9339 22.0664 30.4138 21.9594 30.9414 21.8523Z" fill="#242324"/>
</g>
<defs>
<clipPath id="clip0_163_282">
<rect width="132" height="91" fill="white"/>
</clipPath>
</defs>
</svg>
